<svg width="17" height="17" viewBox="0 0 17 17" fill="none" xmlns="http://www.w3.org/2000/svg">
<path d="M10.95 1.14409C12.635 0.648089 13.934 1.41409 14.527 2.32309C15.2 2.09209 15.858 1.84209 16.538 1.61509C16.5249 2.30145 16.2117 2.94761 15.681 3.38309C16.366 3.55309 16.985 2.89209 16.985 2.89209C16.816 3.89209 15.979 4.68009 15.422 4.91609C15.191 11.6661 12.247 16.1331 5.34504 15.9981H4.89904C4.48904 15.9981 0.735038 15.5381 0.0010376 14.1111C2.27204 14.3071 3.89404 13.6891 4.69404 12.9341C3.73404 12.6341 2.01504 12.4571 1.71504 9.98409C2.06404 10.0901 2.27904 10.2121 2.90504 10.1031C1.70504 9.24709 0.374038 8.53009 0.448038 6.33009C0.733038 6.65809 1.51504 6.86609 1.78804 6.80209C1.08504 6.56109 -0.181962 3.44209 0.894038 1.85009C2.71204 3.70409 4.62904 5.45609 8.04604 5.62309C8.25404 3.33009 9.18304 1.79309 10.95 1.14409Z" fill="white"/>
</svg>
